# xmcd CD database file
#
# Track frame offsets:
#	150
#	20553
#	48012
#	92064
#	120046
#	159907
#	205269
#	250868
#	271361
#	290238
#
# Disc length: 4590 seconds
#
# Revision: 0
# Processed by: cddbd v1.5.2PL0 Copyright (c) Steve Scherf et al.
# Submitted via: CDex 1.50
#
DISCID=8011ec0a
DTITLE=Various Artist - 5 Polsko-Ukrainski Festiwal Jazzowy 
DYEAR=2005
DGENRE=Jazz
TTITLE0=Satin Doll - D Ellington - Agnieszka Marcinczak and Aga Jazz Band
TTITLE1=Pochland - Chocolade - Chocolade 
TTITLE2=After You've Gone - Beale... - Beale Street Band
TTITLE3=Mgla - Trottola... - Trottola Imagine Quintet
TTITLE4=Dwa Serduszka - m.ludowa - Grazyna Lobaszewska
TTITLE5=Locomotive - J Coltrane - Ryszard Kanoforski Quartet
TTITLE6=Goes Town - Bill Frisell - Krzysztof Fertas Guitar Orchestra 
TTITLE7=Kobra - A Szilkloper - Arkadij Szilkloper and Leopolis 
TTITLE8=Teresa - J Pastorius - Arkadij Szilkloper and Leopolis
TTITLE9=Sky Way - T Kudyk - Nev Bone 
EXTD=YEAR: 2005
EXTT0=
EXTT1=
EXTT2=
EXTT3=
EXTT4=
EXTT5=
EXTT6=
EXTT7=
EXTT8=
EXTT9=
PLAYORDER=
